<?xml version="1.0" encoding="UTF-8" standalone="no"?><!DOCTYPE svg PUBLIC "-//W3C//DTD SVG 1.1//EN" "http://www.w3.org/Graphics/SVG/1.1/DTD/svg11.dtd"><!-- Generated by graphviz version 2.40.1 (20161225.0304)
 --><!-- Title: reservations Pages: 1 --><svg xmlns="http://www.w3.org/2000/svg" xmlns:xlink="http://www.w3.org/1999/xlink" width="561pt" height="545pt" viewBox="0.00 0.00 561.26 544.80">
<g id="graph0" class="graph" transform="scale(1 1) rotate(0) translate(4 540.8)">
<title>reservations</title>
<polygon fill="#ffffff" stroke="transparent" points="-4,4 -4,-540.8 557.2582,-540.8 557.2582,4 -4,4"/>
<!-- book_copies -->
<g id="node1" class="node">
<title>book_copies</title>
<polygon fill="none" stroke="#000000" points="0,-166.868 0,-274.868 129.1606,-274.868 129.1606,-166.868 0,-166.868"/>
<text text-anchor="middle" x="64.5803" y="-258.268" font-family="Times,serif" font-size="14.00" fill="#000000">book_copies</text>
<polyline fill="none" stroke="#000000" points="0,-250.068 129.1606,-250.068 "/>
<text text-anchor="start" x="8" y="-233.468" font-family="Times,serif" font-size="14.00" fill="#000000">isbn : varchar(13)</text>
<text text-anchor="start" x="8" y="-216.668" font-family="Times,serif" font-size="14.00" fill="#000000"> library_id : bigint</text>
<text text-anchor="start" x="8" y="-199.868" font-family="Times,serif" font-size="14.00" fill="#000000"> status : book_status</text>
<polyline fill="none" stroke="#000000" points="0,-191.668 129.1606,-191.668 "/>
<text text-anchor="start" x="8" y="-175.068" font-family="Times,serif" font-size="14.00" fill="#000000">copy_id : bigint</text>
</g>
<!-- books -->
<g id="node2" class="node">
<title>books</title>
<polygon fill="none" stroke="#000000" points="117.5488,-.5 117.5488,-125.3 280.8918,-125.3 280.8918,-.5 117.5488,-.5"/>
<text text-anchor="middle" x="199.2203" y="-108.7" font-family="Times,serif" font-size="14.00" fill="#000000">books</text>
<polyline fill="none" stroke="#000000" points="117.5488,-100.5 280.8918,-100.5 "/>
<text text-anchor="start" x="125.5488" y="-83.9" font-family="Times,serif" font-size="14.00" fill="#000000">title : varchar(255)</text>
<text text-anchor="start" x="125.5488" y="-67.1" font-family="Times,serif" font-size="14.00" fill="#000000"> author : varchar(255)</text>
<text text-anchor="start" x="125.5488" y="-50.3" font-family="Times,serif" font-size="14.00" fill="#000000"> publication_year : integer</text>
<text text-anchor="start" x="125.5488" y="-33.5" font-family="Times,serif" font-size="14.00" fill="#000000"> genre : varchar(100)</text>
<polyline fill="none" stroke="#000000" points="117.5488,-25.3 280.8918,-25.3 "/>
<text text-anchor="start" x="125.5488" y="-8.7" font-family="Times,serif" font-size="14.00" fill="#000000">isbn : varchar(13)</text>
</g>
<!-- book_copies&#45;&gt;books -->
<g id="edge1" class="edge">
<title>book_copies-&gt;books</title>
<path fill="none" stroke="#595959" d="M123.3547,-166.5044C123.3547,-166.5044 123.3547,-135.5104 123.3547,-135.5104"/>
<polygon fill="#595959" stroke="#595959" points="126.8548,-135.5103 123.3547,-125.5104 119.8548,-135.5104 126.8548,-135.5103"/>
<text text-anchor="middle" x="111.6871" y="-138.4074" font-family="Times,serif" font-size="14.00" fill="#000000">isbn</text>
</g>
<!-- libraries -->
<g id="node3" class="node">
<title>libraries</title>
<polygon fill="none" stroke="#000000" points="34.5884,-394.7 34.5884,-519.5 179.2442,-519.5 179.2442,-394.7 34.5884,-394.7"/>
<text text-anchor="middle" x="106.9163" y="-502.9" font-family="Times,serif" font-size="14.00" fill="#000000">libraries</text>
<polyline fill="none" stroke="#000000" points="34.5884,-494.7 179.2442,-494.7 "/>
<text text-anchor="start" x="42.5884" y="-478.1" font-family="Times,serif" font-size="14.00" fill="#000000">name : varchar(255)</text>
<text text-anchor="start" x="42.5884" y="-461.3" font-family="Times,serif" font-size="14.00" fill="#000000"> address : varchar(500)</text>
<text text-anchor="start" x="42.5884" y="-444.5" font-family="Times,serif" font-size="14.00" fill="#000000"> phone : varchar(50)</text>
<text text-anchor="start" x="42.5884" y="-427.7" font-family="Times,serif" font-size="14.00" fill="#000000"> email : varchar(255)</text>
<polyline fill="none" stroke="#000000" points="34.5884,-419.5 179.2442,-419.5 "/>
<text text-anchor="start" x="42.5884" y="-402.9" font-family="Times,serif" font-size="14.00" fill="#000000">library_id : bigint</text>
</g>
<!-- book_copies&#45;&gt;libraries -->
<g id="edge2" class="edge">
<title>book_copies-&gt;libraries</title>
<path fill="none" stroke="#595959" d="M81.8745,-275.0644C81.8745,-275.0644 81.8745,-384.3817 81.8745,-384.3817"/>
<polygon fill="#595959" stroke="#595959" points="78.3746,-384.3817 81.8745,-394.3817 85.3746,-384.3817 78.3746,-384.3817"/>
<text text-anchor="middle" x="54.2707" y="-333.923" font-family="Times,serif" font-size="14.00" fill="#000000">library_id</text>
</g>
<!-- reservations -->
<g id="node4" class="node">
<title>reservations</title>
<polygon fill="none" stroke="#000000" points="350.8938,-140.756 350.8938,-265.556 497.1148,-265.556 497.1148,-140.756 350.8938,-140.756"/>
<text text-anchor="middle" x="424.0043" y="-248.956" font-family="Times,serif" font-size="14.00" fill="#000000">reservations</text>
<polyline fill="none" stroke="#000000" points="350.8938,-240.756 497.1148,-240.756 "/>
<text text-anchor="start" x="358.8938" y="-224.156" font-family="Times,serif" font-size="14.00" fill="#000000">copy_id : bigint</text>
<text text-anchor="start" x="358.8938" y="-207.356" font-family="Times,serif" font-size="14.00" fill="#000000"> member_id : bigint</text>
<text text-anchor="start" x="358.8938" y="-190.556" font-family="Times,serif" font-size="14.00" fill="#000000"> reservation_date : date</text>
<text text-anchor="start" x="358.8938" y="-173.756" font-family="Times,serif" font-size="14.00" fill="#000000"> status : varchar(50)</text>
<polyline fill="none" stroke="#000000" points="350.8938,-165.556 497.1148,-165.556 "/>
<text text-anchor="start" x="358.8938" y="-148.956" font-family="Times,serif" font-size="14.00" fill="#000000">reservation_id : bigint</text>
</g>
<!-- reservations&#45;&gt;book_copies -->
<g id="edge3" class="edge">
<title>reservations-&gt;book_copies</title>
<path fill="none" stroke="#595959" d="M350.8363,-216C350.8363,-216 139.2053,-216 139.2053,-216"/>
<polygon fill="#595959" stroke="#595959" points="139.2054,-212.5001 129.2053,-216 139.2053,-219.5001 139.2054,-212.5001"/>
<text text-anchor="middle" x="222.4682" y="-220.2" font-family="Times,serif" font-size="14.00" fill="#000000">copy_id</text>
</g>
<!-- users -->
<g id="node5" class="node">
<title>users</title>
<polygon fill="none" stroke="#000000" points="397.7104,-377.9 397.7104,-536.3 553.2582,-536.3 553.2582,-377.9 397.7104,-377.9"/>
<text text-anchor="middle" x="475.4843" y="-519.7" font-family="Times,serif" font-size="14.00" fill="#000000">users</text>
<polyline fill="none" stroke="#000000" points="397.7104,-511.5 553.2582,-511.5 "/>
<text text-anchor="start" x="405.7104" y="-494.9" font-family="Times,serif" font-size="14.00" fill="#000000">username : varchar(100)</text>
<text text-anchor="start" x="405.7104" y="-478.1" font-family="Times,serif" font-size="14.00" fill="#000000"> name : varchar(200)</text>
<text text-anchor="start" x="405.7104" y="-461.3" font-family="Times,serif" font-size="14.00" fill="#000000"> email : varchar(255)</text>
<text text-anchor="start" x="405.7104" y="-444.5" font-family="Times,serif" font-size="14.00" fill="#000000"> password : varchar(512)</text>
<text text-anchor="start" x="405.7104" y="-427.7" font-family="Times,serif" font-size="14.00" fill="#000000"> role : user_role</text>
<text text-anchor="start" x="405.7104" y="-410.9" font-family="Times,serif" font-size="14.00" fill="#000000"> library_id : bigint</text>
<polyline fill="none" stroke="#000000" points="397.7104,-402.7 553.2582,-402.7 "/>
<text text-anchor="start" x="405.7104" y="-386.1" font-family="Times,serif" font-size="14.00" fill="#000000">user_id : bigint</text>
</g>
<!-- reservations&#45;&gt;users -->
<g id="edge4" class="edge">
<title>reservations-&gt;users</title>
<path fill="none" stroke="#595959" d="M447.4126,-265.6029C447.4126,-265.6029 447.4126,-367.5546 447.4126,-367.5546"/>
<polygon fill="#595959" stroke="#595959" points="443.9127,-367.5546 447.4126,-377.5546 450.9127,-367.5547 443.9127,-367.5546"/>
<text text-anchor="middle" x="392.9813" y="-320.7788" font-family="Times,serif" font-size="14.00" fill="#000000">member_id:user_id</text>
</g>
<!-- users&#45;&gt;libraries -->
<g id="edge5" class="edge">
<title>users-&gt;libraries</title>
<path fill="none" stroke="#595959" d="M397.3205,-457C397.3205,-457 189.3349,-457 189.3349,-457"/>
<polygon fill="#595959" stroke="#595959" points="189.3349,-453.5001 179.3349,-457 189.3349,-460.5001 189.3349,-453.5001"/>
<text text-anchor="middle" x="265.7239" y="-461.2" font-family="Times,serif" font-size="14.00" fill="#000000">library_id</text>
</g>
</g>
</svg>